<?xml version="1.0" standalone="no"?>
<!DOCTYPE svg PUBLIC "-//W3C//DTD SVG 20010904//EN"
 "http://www.w3.org/TR/2001/REC-SVG-20010904/DTD/svg10.dtd">
<svg version="1.0" xmlns="http://www.w3.org/2000/svg"
 width="512.000000pt" height="512.000000pt" viewBox="0 0 512.000000 512.000000"
 preserveAspectRatio="xMidYMid meet">

<g transform="translate(0.000000,512.000000) scale(0.100000,-0.100000)"
fill="currentColor" stroke="none">
<path d="M932 5100 c-26 -24 -30 -81 -7 -103 8 -8 47 -33 88 -55 204 -112 391
-293 528 -512 l34 -55 5 -332 5 -333 168 -168 c92 -92 167 -171 167 -175 0 -4
-377 -7 -838 -7 -938 0 -891 3 -977 -72 -128 -113 -139 -296 -25 -421 57 -63
124 -96 199 -99 63 -3 91 19 91 72 0 45 -21 65 -77 75 -81 13 -143 78 -143
150 0 43 30 96 69 122 l34 23 889 0 889 0 -3 -82 -3 -82 -260 -57 c-143 -32
-309 -63 -370 -69 -60 -5 -272 -10 -471 -10 -337 0 -362 -1 -377 -18 -24 -27
-22 -85 4 -108 20 -18 43 -19 363 -22 187 -2 398 2 469 7 102 9 369 58 472 87
11 3 -146 -161 -350 -365 l-370 -371 -5 -394 -5 -393 -54 -89 c-90 -148 -158
-232 -300 -374 -146 -145 -248 -224 -394 -307 -135 -76 -137 -78 -137 -122 0
-40 18 -63 56 -75 40 -12 269 124 433 257 116 94 252 237 345 361 91 121 182
267 202 325 10 27 13 127 14 396 l0 360 368 368 c202 202 371 365 375 361 4
-4 7 -27 7 -51 0 -24 5 -64 11 -87 l11 -43 -239 -358 -238 -358 -3 -459 -3
-459 -56 -94 c-170 -285 -427 -537 -709 -695 -117 -65 -124 -72 -124 -115 0
-40 32 -75 68 -75 35 0 224 110 346 202 245 183 468 441 600 693 l31 60 3 453
3 453 199 299 199 299 60 -59 60 -59 3 -608 c3 -594 3 -609 24 -654 31 -66 78
-114 142 -146 47 -23 70 -28 132 -28 125 0 222 62 274 174 20 45 21 62 26 656
l5 610 58 54 c34 32 61 51 66 45 5 -5 94 -138 199 -296 l191 -287 3 -453 3
-453 31 -60 c91 -173 257 -389 409 -533 162 -154 471 -362 536 -362 37 0 69
34 69 75 0 43 -7 50 -124 115 -282 158 -539 410 -709 695 l-56 94 -3 459 -3
459 -238 357 -237 356 10 43 c5 23 10 60 10 82 0 22 4 45 8 52 5 8 130 -110
375 -355 l366 -367 3 -375 3 -375 39 -70 c167 -299 403 -558 675 -739 139 -92
248 -148 275 -140 38 12 56 35 56 75 0 44 -2 46 -135 121 -266 150 -528 407
-696 682 l-54 89 -5 393 -5 394 -370 371 c-203 204 -361 368 -350 365 103 -29
370 -78 472 -87 76 -6 336 -9 638 -7 l510 3 53 24 c73 33 147 116 168 189 33
112 -2 232 -91 310 -86 75 -39 72 -977 72 -461 0 -838 3 -838 7 0 4 75 83 168
175 l167 168 5 333 5 332 34 55 c143 228 346 420 559 529 56 29 72 47 72 85 0
39 -35 76 -72 76 -29 0 -202 -101 -298 -174 -153 -117 -320 -311 -412 -481
l-43 -80 -3 -311 -3 -310 -164 -164 -163 -163 -50 53 -49 54 24 46 c29 56 39
140 24 196 -20 73 -65 125 -216 244 l-145 115 0 440 c0 252 -4 454 -10 474
-23 82 -117 82 -140 0 -6 -20 -10 -222 -10 -474 l0 -440 -153 -122 c-187 -149
-212 -184 -212 -303 0 -62 5 -85 26 -126 l26 -50 -49 -54 -50 -53 -163 163
-164 164 -3 310 -3 311 -29 55 c-102 196 -278 398 -462 532 -89 65 -237 148
-264 148 -14 0 -36 -9 -48 -20z m1761 -1189 c149 -120 157 -129 164 -179 7
-49 -16 -96 -60 -122 -29 -18 -51 -20 -237 -20 -186 0 -208 2 -237 20 -70 42
-82 136 -26 192 50 50 247 207 261 207 7 1 68 -43 135 -98z m157 -489 c19 -9
45 -33 58 -52 l23 -34 -3 -336 -3 -335 -27 -52 c-54 -101 -132 -166 -237 -197
-190 -56 -399 59 -457 250 -11 36 -14 120 -14 359 0 437 -20 415 370 415 223
0 259 -2 290 -18z m2040 -227 c124 -64 96 -245 -43 -275 -37 -9 -209 -11 -602
-8 -610 5 -541 -1 -935 87 l-215 48 -3 81 -3 82 886 0 c763 0 890 -2 915 -15z
m-2330 -940 c41 0 92 4 113 8 l37 8 0 -86 0 -85 -150 0 -150 0 0 85 0 86 38
-8 c20 -4 71 -8 112 -8z m150 -380 l0 -75 -150 0 -150 0 0 75 0 75 150 0 150
0 0 -75z m0 -300 l0 -75 -150 0 -150 0 0 75 0 75 150 0 150 0 0 -75z m0 -315
c0 -112 -20 -159 -80 -190 -50 -25 -90 -25 -140 0 -60 31 -80 78 -80 190 l0
90 150 0 150 0 0 -90z"/>
</g>
</svg>
